<?xml version="1.0" encoding="UTF-8"?>
<!DOCTYPE svg PUBLIC "-//W3C//DTD SVG 1.1//EN" "http://www.w3.org/Graphics/SVG/1.1/DTD/svg11.dtd">
<!-- Creator: CorelDRAW 2019 (64-Bit) -->
<svg xmlns="http://www.w3.org/2000/svg" xml:space="preserve" version="1.1" style="shape-rendering:geometricPrecision; text-rendering:geometricPrecision; image-rendering:optimizeQuality; fill-rule:evenodd; clip-rule:evenodd"
viewBox="0 0 14714.2 6000"
 xmlns:xlink="http://www.w3.org/1999/xlink">
 <defs>
  <style type="text/css">
   <![CDATA[
    .fil0 {fill:#FEFEFE;fill-rule:nonzero}
   ]]>
  </style>
 </defs>
 <g id="Layer_x0020_1">
  <metadata id="CorelCorpID_0Corel-Layer"/>
  <g id="_2331665476128">
   <path class="fil0" d="M1677.82 3802.41l144.47 0 0 -735.53 334.93 0c242.98,0 466.26,-124.76 466.26,-404.96 0,-323.98 -280.2,-409.35 -499.11,-409.35l-446.55 0 0 1549.84zm144.47 -1418.5l319.59 0c166.37,0 337.12,78.81 337.12,278.01 0,203.57 -164.17,273.62 -328.36,273.62l-328.35 0 0 -551.63zm1417.49 0l306.47 0c304.27,0 363.38,168.55 363.38,275.82 0,107.26 -59.11,275.81 -363.38,275.81l-306.47 0 0 -551.63zm-144.47 1418.5l144.47 0 0 -735.53 269.25 0 435.62 735.53 164.18 0 -450.94 -744.28c170.75,-21.89 396.22,-102.88 396.22,-398.4 0,-407.16 -429.06,-407.16 -551.64,-407.16l-407.16 0 0 1549.84zm1459.08 0l144.47 0 0 -1549.84 -144.47 0 0 1549.84zm1089.13 0l144.48 0 588.85 -1549.84 -153.23 0 -503.47 1359.39 -499.11 -1359.39 -155.42 0 577.9 1549.84zm1100.09 0l144.47 0 0 -1549.84 -144.47 0 0 1549.84zm730.14 0l866.85 0 0 -131.35 -722.38 0 0 -1418.49 -144.47 0 0 1549.84zm1255.51 0l982.87 0 0 -131.35 -838.4 0 0 -604.18 753.03 0 0 -131.34 -753.03 0 0 -551.63 803.38 0 0 -131.34 -947.85 0 0 1549.84zm2737.47 -836.22l-516.61 0 0 131.35 372.14 0 0 520.99c-118.21,70.05 -267.07,91.94 -433.44,91.94 -404.96,0 -656.7,-297.71 -656.7,-682.98 0,-385.28 251.74,-682.99 656.7,-682.99 168.56,0 359.01,78.81 453.13,192.64l105.08 -109.45c-142.28,-144.48 -328.35,-214.53 -558.21,-214.53 -472.82,0 -801.19,341.49 -801.19,814.33 0,472.83 328.37,814.31 801.19,814.31 201.4,0 398.42,-37.2 577.91,-140.08l0 -735.53zm585.67 836.22l982.88 0 0 -131.35 -838.41 0 0 -604.18 753.04 0 0 -131.34 -753.04 0 0 -551.63 803.38 0 0 -131.34 -947.85 0 0 1549.84z"/>
   <polygon class="fil0" points="8875.76,1973.3 9679.16,1973.3 9679.16,1841.96 8731.28,1841.96 8731.28,1973.3 "/>
   <path class="fil0" d="M5109.3 4771.54l186.79 0c100.86,0 193.19,-40.48 193.19,-151.29 0,-44.74 -21.3,-96.58 -79.55,-114.35l0 -1.42c38.36,-22.01 58.96,-65.34 58.96,-107.96 0,-87.36 -71.03,-132.81 -172.6,-132.81l-186.79 0 0 507.83zm124.29 -311.09l0 -90.2 61.79 0c33.38,0 46.89,19.88 46.89,43.32 0,24.15 -13.51,46.88 -44.76,46.88l-63.92 0zm0 204.56l0 -105.13 75.28 0c36.23,0 53.27,23.45 53.27,51.86 0,28.4 -17.75,53.27 -53.98,53.27l-74.57 0zm918.19 106.53l124.3 0 0 -171.17 58.23 0 90.21 171.17 138.5 0 -98.73 -177.56c-12.07,-21.31 -19.17,-30.54 -19.17,-30.54l0 -1.42c50.43,-25.57 76,-84.53 76,-138.51 0,-73.86 -36.23,-125.71 -93.76,-147.73 -22.02,-8.52 -46.87,-12.07 -98.73,-12.07l-176.85 0 0 507.83zm124.3 -277.71l0 -123.58 41.9 0c62.51,0 76.7,22.73 76.7,61.08 0,40.48 -24.85,62.5 -64.62,62.5l-53.98 0zm1222.17 277.71l127.85 0 -172.59 -507.83 -130.69 0 -172.6 507.83 127.85 0 30.54 -106.53 158.38 0 31.26 106.53zm-109.38 -392.06c0,0 11.36,55.39 20.6,87.36l28.41 98.72 -100.14 0 29.11 -98.72c9.24,-31.97 20.6,-87.36 20.6,-87.36l1.42 0zm923.87 392.06l129.27 0 178.99 -507.83 -132.83 0 -90.9 289.07c-9.95,31.97 -19.19,81.68 -19.19,81.68l-1.41 0c0,0 -9.24,-49.71 -19.19,-81.68l-89.48 -289.07 -134.96 0 179.7 507.83zm1163.21 0l127.86 0 -172.6 -507.83 -130.69 0 -172.6 507.83 127.86 0 30.53 -106.53 158.39 0 31.25 106.53zm-109.37 -392.06c0,0 11.36,55.39 20.6,87.36l28.4 98.72 -100.14 0 29.12 -98.72c9.24,-31.97 20.6,-87.36 20.6,-87.36l1.42 0z"/>
   <path class="fil0" d="M75.16 245.59l6820.97 0 0 151.36 -6745.29 0 0 5315.02 4697.96 0 0 151.37 -4773.64 0 -75.69 0 0 -75.69 0 -5466.37 0 -75.69 75.69 0zm9719.6 5466.38l4767.54 0 0 -5315.02 -6745.28 0 0 -151.36 6820.95 0 75.69 0 0 75.69 0 5466.37 0 75.69 -75.69 0 -4843.21 0 0 -151.37z"/>
   <polygon class="fil0" points="7050.84,7.14 7662.31,7.14 7662.31,618.59 7050.84,618.59 "/>
   <polygon class="fil0" points="5263.71,5498.59 5351.53,5658.84 5531.08,5692.83 5405.8,5825.85 5428.96,6007.13 5263.71,5929.1 5098.47,6007.13 5121.62,5825.85 4996.35,5692.83 5175.9,5658.84 "/>
   <polygon class="fil0" points="6290.09,5498.59 6377.91,5658.84 6557.46,5692.83 6432.18,5825.85 6455.34,6007.13 6290.09,5929.1 6124.84,6007.13 6148,5825.85 6022.72,5692.83 6202.27,5658.84 "/>
   <polygon class="fil0" points="7316.47,5498.59 7404.28,5658.84 7583.83,5692.83 7458.56,5825.85 7481.71,6007.13 7316.47,5929.1 7151.22,6007.13 7174.38,5825.85 7049.1,5692.83 7228.65,5658.84 "/>
   <polygon class="fil0" points="8342.85,5498.59 8430.66,5658.84 8610.21,5692.83 8484.94,5825.85 8508.09,6007.13 8342.85,5929.1 8177.6,6007.13 8200.75,5825.85 8075.48,5692.83 8255.03,5658.84 "/>
   <polygon class="fil0" points="9369.22,5498.59 9457.04,5658.84 9636.59,5692.83 9511.31,5825.85 9534.47,6007.13 9369.22,5929.1 9203.98,6007.13 9227.13,5825.85 9101.86,5692.83 9281.41,5658.84 "/>
  </g>
 </g>
</svg>
