<?xml version="1.0" encoding="UTF-8"?>
<!DOCTYPE svg PUBLIC "-//W3C//DTD SVG 1.1//EN" "http://www.w3.org/Graphics/SVG/1.1/DTD/svg11.dtd">
<!-- Creator: CorelDRAW 2019 (64-Bit) -->
<svg xmlns="http://www.w3.org/2000/svg" xml:space="preserve" version="1.1" style="shape-rendering:geometricPrecision; text-rendering:geometricPrecision; image-rendering:optimizeQuality; fill-rule:evenodd; clip-rule:evenodd"
viewBox="0 0 17564.1 6144.1"
 xmlns:xlink="http://www.w3.org/1999/xlink">
 <defs>
  <style type="text/css">
   <![CDATA[
    .fil0 {fill:#FEFEFE}
    .fil1 {fill:#FEFEFE;fill-rule:nonzero}
   ]]>
  </style>
 </defs>
 <g id="Layer_x0020_1">
  <metadata id="CorelCorpID_0Corel-Layer"/>
  <g id="_2331658582816">
   <path class="fil0" d="M-3.78 3128.87l3052.72 57.35 -996.88 2885.93c-320.52,-1309.75 -936.42,-2191.53 -2055.84,-2943.28zm2743.7 273.27l-2063.05 -38.76c325.29,275.57 598.93,572.22 828.56,900.96 229.61,328.76 414,687.83 560.77,1088.22l673.72 -1950.42z"/>
   <path class="fil0" d="M5734.35 1157.09l-2494.61 1760.48 -904.43 -2916.21c1033.52,866.05 2051.83,1212.28 3399.04,1155.73zm-2373.17 1402.89l1684.78 -1188.96c-425.2,-29.51 -821.01,-106.53 -1200.05,-235.43 -379.5,-129.04 -740.44,-309.23 -1095.5,-544.92l610.77 1969.31z"/>
   <path class="fil0" d="M2276.91 6145.44l968.89 -2895.46 2454.96 1815.39c-1345.64,-86.41 -2371.39,237.16 -3423.85,1080.07zm1082.41 -2535.6l-654.47 1955.84c360.55,-228.15 725.34,-400.45 1107.11,-520.88 381.96,-120.49 779.53,-188.76 1205.5,-208.83l-1658.14 -1226.13z"/>
   <path class="fil0" d="M2114.23 59.91l932.65 2907.34 -3053.24 -10.38c1135.8,-726.75 1771.09,-1594.63 2120.59,-2896.96zm628.2 2684.63l-629.96 -1963.84c-155.57,396.63 -347.81,751.28 -584.6,1074.81 -236.55,323.15 -516.81,613.56 -848.65,882.01l2063.21 7.02z"/>
   <path class="fil0" d="M5848.81 4890.69l-2472.42 -1791.51 2467.26 -1798.64c-485.43,1257.99 -483.88,2333.55 5.16,3590.15zm-2095.04 -1792.5l1670.25 1210.28c-109.35,-411.72 -164.33,-811.38 -164.89,-1212.32 -0.56,-400.93 53.36,-800.87 161.72,-1213.25l-1667.08 1215.29z"/>
   <path class="fil1" d="M7163.21 3043.21c98.88,28.02 168.92,82.4 210.12,163.15 41.2,80.75 61.8,177.16 61.8,289.22 0,87.34 -9.89,161.91 -29.66,223.71 -19.78,61.8 -51.91,112.88 -96.41,153.26 -44.49,40.37 -103,70.04 -175.51,88.99 -72.51,18.95 -161.5,28.43 -266.97,28.43 -74.16,0 -142.96,-3.71 -206.4,-11.13 -63.45,-7.41 -126.49,-20.18 -189.12,-38.31l0 -1680.92c62.63,-18.14 125.67,-30.91 189.12,-38.32 63.44,-7.42 132.24,-11.13 206.4,-11.13 174.69,0 300.75,37.49 378.21,112.47 77.45,74.99 116.18,189.94 116.18,344.84 0,74.17 -14.42,143.37 -43.26,207.64 -28.84,64.28 -80.34,117.01 -154.5,158.21l0 9.89zm-469.67 93.93l0 692.15 173.04 0c123.6,0 212.18,-25.96 265.73,-77.86 53.56,-51.91 80.35,-137.2 80.35,-255.85 0,-130.19 -26.79,-222.48 -80.35,-276.86 -53.55,-54.38 -142.13,-81.58 -265.73,-81.58l-173.04 0zm148.32 -160.67c197.75,0 296.63,-103 296.63,-309 0,-197.75 -98.88,-296.63 -296.63,-296.63l-148.32 0 0 605.63 148.32 0zm1804.52 -173.04c0,84.04 -5.35,156.56 -16.06,217.53 -10.72,60.98 -26.38,113.3 -46.97,156.97 -20.61,43.67 -46.56,79.1 -77.87,106.3 -31.31,27.19 -66.74,48.2 -106.3,63.03l296.64 617.99 -247.19 0 -271.92 -568.55 -247.2 0 0 568.55 -222.47 0 0 -1705.64c62.62,-18.14 125.66,-30.91 189.11,-38.32 63.44,-7.42 132.24,-11.13 206.4,-11.13 98.88,0 182.93,9.89 252.14,29.66 69.22,19.79 125.25,53.15 168.09,100.12 42.85,46.97 74.16,108.36 93.93,184.16 19.78,75.8 29.67,168.91 29.67,279.33zm-543.83 420.23c56.03,0 104.24,-7 144.61,-21.01 40.37,-14 73.75,-37.08 100.12,-69.22 26.36,-32.13 45.72,-74.97 58.08,-128.54 12.37,-53.56 18.55,-120.71 18.55,-201.46 0,-84.04 -6.18,-153.67 -18.55,-208.88 -12.36,-55.21 -31.72,-99.29 -58.08,-132.25 -26.37,-32.96 -59.75,-56.44 -100.12,-70.45 -40.37,-14 -88.58,-21.01 -144.61,-21.01l-173.04 0 0 852.82 173.04 0zm1062.94 296.64l-111.24 444.95 -222.47 0 420.23 -1730.37 321.36 0 420.22 1730.37 -222.47 0 -111.24 -444.95 -494.39 0zm252.14 -1038.23l-9.88 0 -205.17 865.19 420.22 0 -205.17 -865.19zm1127.21 1248.34l9.89 0 328.77 -1495.53 222.48 0 -395.51 1730.37 -321.36 0 -395.52 -1730.37 222.48 0 328.77 1495.53zm894.84 -210.11l-111.24 444.95 -222.47 0 420.23 -1730.37 321.36 0 420.23 1730.37 -222.48 0 -111.24 -444.95 -494.39 0zm252.14 -1038.23l-9.88 0 -205.17 865.19 420.22 0 -205.17 -865.19zm1844.08 1248.34l9.89 0 328.77 -1495.53 222.47 0 -395.51 1730.37 -321.35 0 -395.52 -1730.37 222.48 0 328.77 1495.53zm1006.08 -1495.53l0 1730.37 -222.48 0 0 -1730.37 222.48 0zm568.55 1557.34l617.99 0 0 173.03 -840.47 0 0 -1730.37 840.47 0 0 173.04 -617.99 0 0 568.55 543.83 0 0 173.03 -543.83 0 0 642.72zm1718.01 -1235.98l271.91 1013.5 12.36 0 222.47 -1334.86 222.48 0 -284.28 1730.37 -271.91 0 -279.33 -1038.22 -9.89 0 -279.33 1038.22 -271.91 0 -284.28 -1730.37 222.47 0 222.48 1334.86 12.36 0 271.92 -1013.5 222.48 0z"/>
  </g>
 </g>
</svg>
